<svg width="18" height="18" viewBox="0 0 18 18" fill="none" xmlns="http://www.w3.org/2000/svg">
<path d="M13.4625 5.2875H4.5375V2.25H13.4625V5.2875ZM13.8563 8.75625C14.0063 8.75625 14.1375 8.7 14.25 8.5875C14.3625 8.475 14.4188 8.34375 14.4188 8.19375C14.4188 8.04375 14.3625 7.9125 14.25 7.8C14.1375 7.6875 14.0063 7.63125 13.8563 7.63125C13.7063 7.63125 13.575 7.6875 13.4625 7.8C13.35 7.9125 13.2938 8.04375 13.2938 8.19375C13.2938 8.34375 13.35 8.475 13.4625 8.5875C13.575 8.7 13.7063 8.75625 13.8563 8.75625ZM12.3375 14.625V11.025H5.6625V14.625H12.3375ZM13.4625 15.75H4.5375V12.45H1.5V7.8375C1.5 7.27438 1.69062 6.80234 2.07188 6.42141C2.45313 6.04047 2.925 5.85 3.4875 5.85H14.5125C15.0756 5.85 15.5477 6.04047 15.9286 6.42141C16.3095 6.80234 16.5 7.27438 16.5 7.8375V12.45H13.4625V15.75Z" fill="#EF672A"/>
</svg>
