<svg width="14" height="14" viewBox="0 0 14 14" fill="none" xmlns="http://www.w3.org/2000/svg">
<path fill-rule="evenodd" clip-rule="evenodd" d="M9.26141 8.14378L13.5589 12.4413L12.4414 13.5588L8.14391 9.26128C7.34141 9.83879 6.37391 10.1913 5.31641 10.1913C2.62391 10.1913 0.441406 8.00879 0.441406 5.31628C0.441406 2.62378 2.62391 0.441284 5.31641 0.441284C8.00891 0.441284 10.1914 2.62378 10.1914 5.31628C10.1914 6.37378 9.83891 7.34129 9.26141 8.14378ZM5.31641 1.94128C3.44891 1.94128 1.94141 3.44878 1.94141 5.31628C1.94141 7.18378 3.44891 8.69129 5.31641 8.69129C7.18391 8.69129 8.69141 7.18378 8.69141 5.31628C8.69141 3.44878 7.18391 1.94128 5.31641 1.94128Z" fill="white"/>
</svg>
